<svg width="128" height="110" viewBox="0 0 128 110" fill="none" xmlns="http://www.w3.org/2000/svg">
<g clip-path="url(#clip0_2326_1389)">
<path d="M51.7405 5.28166V19.8556L39.9807 14.5739V0L51.7405 5.28166Z" fill="#9FD7EE"/>
<path d="M39.9807 21.2205L51.7405 26.5021V72.778L39.9807 67.4939V21.2205Z" fill="#9FD7EE"/>
<path d="M51.7405 19.8556V26.5022L39.9807 21.2206V14.574L51.7405 19.8556Z" fill="#4FB2B9"/>
<path d="M51.7405 26.5021V72.778L39.9807 67.4939V21.2205L51.7405 26.5021Z" fill="#4FB2B9"/>
<path d="M51.7405 26.5021V72.778L39.9807 67.4939V21.2205L51.7405 26.5021Z" fill="#3B75DF"/>
<path d="M68.103 12.441V27.0149L56.3433 21.7333V7.15698L68.103 12.441Z" fill="#9FD7EE"/>
<path d="M56.3433 28.3774L68.103 33.6591V50.6548L56.3433 45.3322V28.3774Z" fill="#9FD7EE"/>
<path d="M68.103 27.0148V33.659L56.3433 28.3774V21.7332L68.103 27.0148Z" fill="#4FB2B9"/>
<path d="M68.103 53.5531V60.1973L56.3433 54.9157V48.2715L68.103 53.5531Z" fill="#9FD7EE"/>
<path d="M68.103 33.6591V50.6548L56.3433 45.3322V28.3774L68.103 33.6591Z" fill="#4FB2B9"/>
<path d="M68.103 33.6591V50.6548L56.3433 45.3322V28.3774L68.103 33.6591Z" fill="#3B75DF"/>
<path d="M84.4656 19.8556V34.4271L72.7058 29.1455V14.574L84.4656 19.8556Z" fill="#9FD7EE"/>
<path d="M72.7058 35.7944L84.4656 41.0761V58.0693L72.7058 52.7492V35.7944Z" fill="#9FD7EE"/>
<path d="M84.4656 34.4272V41.0762L72.7058 35.7945V29.1455L84.4656 34.4272Z" fill="#4FB2B9"/>
<path d="M84.4656 60.6017V67.2507L72.7058 61.9691V55.3201L84.4656 60.6017Z" fill="#9FD7EE"/>
<path d="M84.4656 41.0761V58.0693L72.7058 52.7492V35.7944L84.4656 41.0761Z" fill="#4FB2B9"/>
<path d="M84.4656 41.0761V58.0693L72.7058 52.7492V35.7944L84.4656 41.0761Z" fill="#3B75DF"/>
<path d="M2.90804 103.486H0V83.1272H14.3669V85.6573H2.90804V103.486ZM2.61675 92.7541H13.1175V95.2553H2.61675V92.7541Z" fill="#3B75DF"/>
<path d="M14.444 103.486L23.664 83.1272H26.5528L35.8017 103.486H32.7396L24.509 84.7569H25.6741L17.4435 103.486H14.444ZM18.3703 98.3968L19.1551 96.0689H30.6139L31.4589 98.3968H18.3703Z" fill="white"/>
<path d="M47.6384 103.719C46.1725 103.735 44.7169 103.473 43.3486 102.947C42.0776 102.458 40.9194 101.716 39.9446 100.765C38.9845 99.8236 38.2189 98.7022 37.6914 97.465C36.6066 94.7987 36.6066 91.8141 37.6914 89.1478C38.2229 87.8993 39.0002 86.7706 39.9771 85.8289C40.954 84.8871 42.1104 84.1517 43.3775 83.6663C46.1651 82.6294 49.2343 82.6396 52.0149 83.6952C53.3152 84.2075 54.4764 85.019 55.4044 86.064L53.5123 87.8959C52.7793 87.1108 51.8872 86.4911 50.8955 86.0784C49.907 85.6781 48.8494 85.476 47.7829 85.4838C46.6941 85.4733 45.6132 85.6702 44.598 86.064C43.6504 86.4336 42.7855 86.9875 42.0535 87.6937C41.3315 88.3989 40.7627 89.2455 40.3828 90.1805C39.5848 92.1905 39.5848 94.4295 40.3828 96.4395C40.7627 97.3745 41.3315 98.2211 42.0535 98.9263C42.7849 99.6333 43.6499 100.187 44.598 100.556C45.6132 100.95 46.6941 101.147 47.7829 101.136C48.8494 101.144 49.907 100.942 50.8955 100.542C51.8919 100.126 52.7851 99.4978 53.5123 98.7L55.4044 100.532C54.4745 101.578 53.3141 102.394 52.0149 102.915C50.6228 103.467 49.1358 103.74 47.6384 103.719ZM46.4468 110C45.9767 110.004 45.5078 109.951 45.0506 109.841C44.6286 109.738 44.2234 109.576 43.8469 109.36L44.4584 107.934C44.7545 108.104 45.073 108.231 45.4044 108.312C45.7426 108.394 46.0894 108.433 46.4372 108.43C46.871 108.464 47.304 108.357 47.6721 108.125C47.8015 108.023 47.9046 107.892 47.9729 107.743C48.0412 107.593 48.0726 107.429 48.0645 107.265C48.0703 107.106 48.0377 106.947 47.9694 106.803C47.9011 106.659 47.7992 106.534 47.6721 106.437C47.4097 106.235 46.9885 106.131 46.4059 106.131H45.6211L46.3433 103.281H47.9442L47.5084 104.94C48.3414 105.017 48.9713 105.278 49.3982 105.725C49.6289 105.972 49.8042 106.266 49.9127 106.587C50.0211 106.908 50.0601 107.248 50.0271 107.585C49.9941 107.922 49.8898 108.248 49.7212 108.541C49.5526 108.835 49.3235 109.089 49.0491 109.287C48.3991 109.761 47.5317 109.998 46.4468 110Z" fill="white"/>
<path d="M59.5619 103.486V83.1272H62.4699V103.486H59.5619Z" fill="white"/>
<path d="M68.5771 103.486V83.1272H71.4972V100.956H82.5179V103.486H68.5771Z" fill="white"/>
<path d="M85.8545 103.486V83.1272H88.7625V103.486H85.8545Z" fill="white"/>
<path d="M98.9119 103.486V85.6573H91.9307V83.1272H108.77V85.6573H101.789V103.486H98.9119Z" fill="white"/>
<path d="M116.623 103.486V95.691L117.292 97.4941L108.539 83.1272H111.649L119.008 95.2553H117.323L124.699 83.1272H127.588L118.864 97.4965L119.502 95.6934V103.488L116.623 103.486Z" fill="white"/>
</g>
<defs>
<clipPath id="clip0_2326_1389">
<rect width="127.588" height="110" fill="white"/>
</clipPath>
</defs>
</svg>
