<svg width="1002" height="269" viewBox="0 0 1002 269" fill="none" xmlns="http://www.w3.org/2000/svg">
<path d="M40.7106 19.4773V73.2218L0 53.7444V0L40.7106 19.4773Z" fill="#9FD7EE"/>
<path d="M0 78.2551L40.7106 97.7321V268.384L0 248.898V78.2551Z" fill="#9FD7EE"/>
<path d="M40.7106 73.2218V97.7325L0 78.2555V53.7447L40.7106 73.2218Z" fill="#4FB2B9"/>
<path d="M40.7106 97.7321V268.384L0 248.898V78.2551L40.7106 97.7321Z" fill="#4FB2B9"/>
<path d="M40.7106 97.7321V268.384L0 248.898V78.2551L40.7106 97.7321Z" fill="#3B75DF"/>
<path d="M97.3552 45.8789V99.6233L56.6449 80.1462V26.3929L97.3552 45.8789Z" fill="#9FD7EE"/>
<path d="M56.6449 104.648L97.3552 124.125V186.8L56.6449 167.172V104.648Z" fill="#9FD7EE"/>
<path d="M97.3552 99.6228V124.125L56.6449 104.648V80.1458L97.3552 99.6228Z" fill="#4FB2B9"/>
<path d="M97.3552 197.489V221.99L56.6449 202.513V178.012L97.3552 197.489Z" fill="#9FD7EE"/>
<path d="M97.3552 124.125V186.8L56.6449 167.172V104.648L97.3552 124.125Z" fill="#4FB2B9"/>
<path d="M97.3552 124.125V186.8L56.6449 167.172V104.648L97.3552 124.125Z" fill="#3B75DF"/>
<path d="M154 73.2218V126.957L113.289 107.48V53.7447L154 73.2218Z" fill="#9FD7EE"/>
<path d="M113.289 132L154 151.477V214.143L113.289 194.524V132Z" fill="#9FD7EE"/>
<path d="M154 126.958V151.477L113.289 132V107.48L154 126.958Z" fill="#4FB2B9"/>
<path d="M154 223.482V248.001L113.289 228.524V204.005L154 223.482Z" fill="#9FD7EE"/>
<path d="M154 151.477V214.143L113.289 194.524V132L154 151.477Z" fill="#4FB2B9"/>
<path d="M154 151.477V214.143L113.289 194.524V132L154 151.477Z" fill="#3B75DF"/>
<path d="M193.835 215.056H175V74.5951H268.05V92.0511H193.835V215.056ZM191.948 141.014H259.958V158.27H191.948V141.014Z" fill="#3B75DF"/>
<path d="M268.549 215.056L328.265 74.5951H346.974L406.877 215.056H387.045L333.737 85.8389H341.283L287.976 215.056H268.549ZM293.979 179.945L299.062 163.884H373.278L378.75 179.945H293.979Z" fill="#0D1525"/>
<path d="M483.541 216.664C474.047 216.774 464.619 214.967 455.757 211.338C447.525 207.964 440.024 202.845 433.71 196.284C427.492 189.789 422.533 182.052 419.117 173.516C412.091 155.12 412.091 134.529 419.117 116.133C422.559 107.519 427.594 99.7321 433.92 93.235C440.247 86.7373 447.737 81.6635 455.944 78.3146C473.999 71.1607 493.877 71.2311 511.886 78.514C520.308 82.0485 527.829 87.6473 533.839 94.857L521.584 107.496C516.837 102.079 511.059 97.8037 504.636 94.9564C498.234 92.1946 491.383 90.8003 484.476 90.8541C477.424 90.7816 470.424 92.1401 463.849 94.857C457.711 97.407 452.11 101.229 447.368 106.101C442.692 110.966 439.009 116.807 436.548 123.258C431.379 137.126 431.379 152.573 436.548 166.441C439.009 172.891 442.692 178.732 447.368 183.598C452.105 188.476 457.708 192.296 463.849 194.842C470.424 197.56 477.424 198.919 484.476 198.843C491.383 198.898 498.234 197.505 504.636 194.745C511.09 191.875 516.875 187.541 521.584 182.036L533.839 194.676C527.816 201.893 520.301 207.523 511.886 211.117C502.869 214.925 493.239 216.809 483.541 216.664ZM475.823 259.999C472.778 260.026 469.741 259.66 466.78 258.902C464.047 258.191 461.422 257.073 458.984 255.583L462.944 245.745C464.863 246.917 466.925 247.794 469.072 248.353C471.262 248.918 473.508 249.187 475.761 249.167C478.571 249.401 481.375 248.663 483.759 247.062C484.597 246.359 485.265 245.455 485.707 244.427C486.15 243.392 486.353 242.26 486.301 241.129C486.338 240.032 486.127 238.935 485.685 237.942C485.242 236.948 484.582 236.086 483.759 235.416C482.06 234.023 479.331 233.305 475.558 233.305H470.475L475.153 213.642H485.521L482.699 225.088C488.093 225.619 492.174 227.42 494.939 230.504C496.432 232.208 497.568 234.237 498.27 236.451C498.972 238.666 499.225 241.012 499.011 243.337C498.797 245.662 498.123 247.911 497.031 249.932C495.939 251.961 494.455 253.713 492.678 255.079C488.468 258.35 482.85 259.985 475.823 259.999Z" fill="#0D1525"/>
<path d="M560.766 215.056V74.5951H579.6V215.056H560.766Z" fill="#0D1525"/>
<path d="M619.156 215.056V74.5951H638.068V197.601H709.446V215.056H619.156Z" fill="#0D1525"/>
<path d="M731.057 215.056V74.5951H749.891V215.056H731.057Z" fill="#0D1525"/>
<path d="M815.625 215.056V92.0511H770.409V74.5951H879.473V92.0511H834.259V215.056H815.625Z" fill="#0D1525"/>
<path d="M930.335 215.056V161.277L934.668 173.717L877.977 74.5951H898.12L945.782 158.27H934.869L982.641 74.5951H1001.35L944.849 173.733L948.981 161.293V215.07L930.335 215.056Z" fill="#0D1525"/>
</svg>
