<svg width="134" height="27" viewBox="0 0 134 27" fill="none" xmlns="http://www.w3.org/2000/svg">
<g clip-path="url(#clip0_2015_3930)">
<path d="M127.832 3.34172C127.832 1.83176 129.045 0.594083 130.53 0.594083C131.248 0.594083 131.916 0.891125 132.436 1.38619C132.956 1.90602 133.228 2.59911 133.228 3.31696C133.228 4.03482 132.956 4.72791 132.436 5.24774C131.916 5.76756 131.248 6.0646 130.53 6.0646C129.045 6.0646 127.832 4.85168 127.832 3.34172ZM127.609 3.34172C127.609 4.97545 128.921 6.31213 130.555 6.31213C131.347 6.31213 132.065 6.01509 132.609 5.44576C133.154 4.87643 133.476 4.13383 133.476 3.34172C133.476 2.54961 133.179 1.807 132.609 1.23767C132.04 0.668344 131.322 0.371302 130.555 0.371302C128.921 0.371302 127.609 1.70799 127.609 3.34172ZM129.441 5.09921H129.862V3.71302H130.802C130.951 3.71302 131.075 3.71302 131.174 3.76253C131.297 3.83679 131.372 3.98531 131.396 4.18334L131.446 4.72791V4.97545C131.471 5.02495 131.471 5.04971 131.495 5.07446H132.015V5.0002C131.941 4.97545 131.916 4.90119 131.891 4.80217C131.867 4.75267 131.867 4.65365 131.867 4.52988L131.842 4.10908C131.842 3.91105 131.792 3.78728 131.743 3.71302C131.669 3.63876 131.57 3.5645 131.446 3.51499C131.594 3.44073 131.693 3.34172 131.768 3.21795C131.842 3.09418 131.867 2.94566 131.867 2.74764C131.867 2.37633 131.718 2.1288 131.446 1.98028C131.297 1.90602 131.099 1.88126 130.877 1.88126H129.466L129.441 5.09921ZM129.837 3.34172V2.22781H130.827C130.976 2.22781 131.099 2.25257 131.174 2.30207C131.322 2.37633 131.396 2.54961 131.396 2.77239C131.396 2.99517 131.347 3.14369 131.223 3.21795C131.124 3.29221 130.976 3.34172 130.778 3.34172H129.837ZM12.555 7.42604L0.52478 26.3377H8.74293L20.3276 8.26766L12.555 7.42604ZM62.0867 7.00523V0H38.6946C35.5014 0.198028 34.1152 1.73274 33.0756 2.8219C31.9617 3.98531 31.3429 6.4359 31.3429 6.4359V0.0495069H18.8919C17.9512 0.0495069 17.0601 0.445562 16.3918 1.38619C15.6987 2.30207 12.852 7.00523 12.852 7.00523H62.0867ZM125.703 7.00523V0H100.677C97.5089 0.198028 96.0979 1.73274 95.0583 2.8219C93.9444 3.98531 93.3255 6.4359 93.3255 6.4359V7.00523H125.703ZM70.3048 0.0247535H63.2996V7.00523H70.3048V0.0247535ZM93.2513 0.0247535H86.2708V7.00523H93.2513V0.0247535ZM93.2513 9.53009L86.3698 9.10928V17.2037C86.3698 17.2037 86.3451 19.5305 84.0925 19.5305H72.3098C72.3098 19.5305 70.3048 19.3572 70.3048 17.2284V8.02012L63.3738 7.52505V19.9265C64.4877 25.8674 69.8593 26.3377 69.8593 26.3377C69.8593 26.3377 70.4038 26.3624 70.5028 26.3872H86.4688C86.4688 26.3872 93.3008 25.8426 93.3008 19.2582L93.2513 9.53009ZM24.2139 26.3377H56.9379C62.6312 25.199 63.2253 20.0008 63.2253 20.0008C63.4976 18.4661 63.3491 17.2037 63.3491 17.2037C63.1758 16.164 61.1955 11.5599 56.9379 11.1638C54.3883 10.9163 31.6894 9.10928 31.6894 9.10928C32.135 11.3866 33.1499 12.55 33.843 13.1936C35.4272 14.7036 37.9273 15.1491 37.9273 15.1491L55.428 16.6096C55.9726 16.6343 56.9874 16.7829 56.9627 18.1195C56.9627 18.2928 56.8142 19.4562 55.527 19.4562H31.0458V9.05977L24.2386 8.5647C24.2139 8.5647 24.2139 26.3377 24.2139 26.3377ZM93.3008 26.3872H118.351C124.639 26.0159 125.53 20.0503 125.53 20.0503C125.753 18.4908 125.579 17.2037 125.579 17.2037C125.406 15.7927 123.401 11.5351 119.119 11.1143C116.594 10.8668 93.7464 9.53009 93.7464 9.53009C94.4147 11.8817 95.3306 12.5995 96.0237 13.2431C97.6079 14.7778 99.9595 15.1244 99.9595 15.1244C100.554 15.1739 117.633 16.6096 117.633 16.6096C118.178 16.6343 119.292 16.6838 119.292 18.0205C119.292 18.4166 119.094 18.8374 118.846 19.0602C118.846 19.0602 118.252 19.382 117.683 19.382H93.3751L93.3008 26.3872Z" fill="#00539B"/>
</g>
<defs>
<clipPath id="clip0_2015_3930">
<rect width="133" height="26.3872" fill="white" transform="translate(0.5)"/>
</clipPath>
</defs>
</svg>
