<svg width="143" height="23" viewBox="0 0 143 23" fill="none" xmlns="http://www.w3.org/2000/svg">
<path fill-rule="evenodd" clip-rule="evenodd" d="M11.7908 8.74716C13.7486 8.74259 15.2826 8.76774 17.2404 8.76317C21.3076 8.56732 23.1587 3.72434 19.0457 3.4698L15.3169 3.46828C14.1212 3.46828 13.1808 4.02993 12.7655 5.19362L11.7908 8.74716ZM8.82862 18.7037C10.7864 18.6991 12.3204 18.7242 14.2782 18.7197C20.3916 18.6663 21.4806 11.4129 16.2733 11.6819H10.8794L9.80256 15.1501L8.82862 18.7037ZM14.4215 22.245H0L6.7032 0.5H21.8433C33.074 0.5 29.4465 8.80813 24.0335 9.97944C23.9352 10.0221 23.9131 10.2103 24.0869 10.2705C30.8122 12.348 29.1211 22.6253 14.4215 22.245ZM36.5841 22.2671H29.4282C29.4282 21.7253 32.5383 11.9425 32.6373 11.643C34.6835 5.42224 43.6036 5.08845 49.0638 5.56398L48.3498 8.4652C40.8837 8.15122 40.2238 10.4931 38.5015 16.0654L36.5841 22.2671Z" fill="#CE3736"/>
<path fill-rule="evenodd" clip-rule="evenodd" d="M60.3767 17.3133C59.7526 19.6918 56.1762 19.5538 54.9149 17.968C53.1858 15.793 54.3868 10.7831 62.9914 8.7118C62.1668 11.4614 60.8827 15.7587 60.3767 17.3133ZM66.3201 22.2066L52.4382 22.1243C40.8684 21.9223 44.1316 3.90693 71.2172 5.61169L66.3201 22.2066ZM113.229 17.5153C112.604 19.8937 109.027 19.7565 107.766 18.1699C106.036 15.9957 107.238 10.9851 115.843 8.91375C115.018 11.6633 113.735 15.9606 113.229 17.5153ZM119.172 22.4093L105.29 22.327C94.8347 22.1449 96.4914 7.41704 116.892 5.8365L118.355 0.86397L125.634 0.876924L119.172 22.4093ZM78.8936 22.2066L71.5952 22.3019L74.7494 12.4703C77.5965 5.25885 83.4257 5.51871 91.5135 5.82354C94.3744 6.00796 98.1253 6.68926 96.5501 11.6793C95.4406 15.1941 94.3645 18.7194 93.3219 22.2546L85.8811 22.3499L88.9713 12.4399C90.0565 9.35499 88.8211 8.41764 87.1301 8.33915C84.2319 8.20426 82.3549 10.0378 81.9373 11.9834L78.8936 22.2066ZM139.769 18.7034L138.867 22.1594C136.227 22.5564 131.65 23.2423 128.882 22.3628C126.015 21.587 125.418 19.5881 126.1 17.3781C126.102 17.372 131.045 2.43232 131.045 0.852539L138.247 0.947798L136.94 6.19239L142.574 6.27469L141.955 8.96329L135.99 8.91604L133.9 15.9545C132.64 20.1985 137.559 18.8695 139.769 18.7034Z" fill="#CE3736"/>
</svg>
