<svg width="113" height="54" viewBox="0 0 113 54" fill="none" xmlns="http://www.w3.org/2000/svg">
<path d="M26.9095 53.8177C41.7706 53.8177 53.8191 41.7699 53.8191 26.9089C53.8191 12.0478 41.7712 0 26.9095 0C12.0478 0 0 12.0478 0 26.9089C0 41.7699 12.0478 53.8177 26.9095 53.8177Z" fill="#A70B52"/>
<path d="M33.4618 36.3789H27.8893V15.3174H25.8227V38.4571H27.8893V38.4435H33.4618V36.3789Z" fill="white"/>
<path d="M47.371 27.7707H33.4946V25.7041H49.4036C49.4247 26.1037 49.4349 26.5039 49.4349 26.9089C49.4349 39.3501 39.3494 49.435 26.9088 49.435C14.4683 49.435 4.38275 39.3501 4.38275 26.9089C4.38275 14.4677 14.4683 4.38281 26.9095 4.38281C27.2375 4.38281 27.5648 4.38963 27.89 4.40395L27.8873 6.45487C27.5616 6.43984 27.2356 6.43234 26.9095 6.43237C15.6008 6.43237 6.43231 15.6002 6.43231 26.9089C6.43231 38.2183 15.6001 47.3854 26.9095 47.3854C37.9101 47.3854 46.8842 38.7113 47.3656 27.8287L47.371 27.7707Z" fill="white"/>
<path d="M18.5067 21.5519C19.3462 21.5519 20.1514 21.2184 20.745 20.6248C21.3386 20.0312 21.6721 19.2261 21.6721 18.3866C21.6721 17.5471 21.3386 16.7419 20.745 16.1483C20.1514 15.5547 19.3462 15.2212 18.5067 15.2212C17.6672 15.2212 16.8621 15.5547 16.2685 16.1483C15.6749 16.7419 15.3414 17.5471 15.3414 18.3866C15.3414 19.2261 15.6749 20.0312 16.2685 20.6248C16.8621 21.2184 17.6672 21.5519 18.5067 21.5519Z" fill="white"/>
<path d="M67.1808 40.1172H86.4089V34.3101H74.2404V13.5159H67.1808V40.1172ZM109.641 15.3888C107.436 13.6809 104.598 12.8149 101.211 12.8149C97.1885 12.8149 93.8278 14.0504 91.4912 16.385C89.0523 18.8252 87.7609 22.4198 87.7609 26.7801C87.7609 31.4383 89.1259 35.369 91.6044 37.8454C93.5503 39.7906 96.1426 40.8168 99.1092 40.8168C105.621 40.8168 107.119 36.9133 107.119 36.9133V40.1158H113V25.0925H101.294V29.7937H106.682C106.682 29.7937 106.733 35.7126 101.172 35.7126C99.7597 35.7126 98.501 35.1999 97.5328 34.2317C96.0239 32.7242 95.2262 30.1837 95.2262 26.8905C95.2262 21.4359 97.3944 18.1795 101.024 18.1795C103.292 18.1795 104.997 19.5718 105.434 21.6821H112.923C112.535 18.6159 111.694 17.0177 109.641 15.3888Z" fill="#808183"/>
</svg>
